/* XPM */
static char * zdaemon_xpm[] = {
"24 24 143 2",
"  	c None",
". 	c #E53900",
"+ 	c #D13800",
"@ 	c #E84600",
"# 	c #FA804B",
"$ 	c #FFD5C5",
"% 	c #FFEFEE",
"& 	c #FCBEA2",
"* 	c #FA956A",
"= 	c #F16C2E",
"- 	c #F0510A",
"; 	c #FF9267",
"> 	c #FEAB84",
", 	c #FFE2D4",
"' 	c #FEDBC8",
") 	c #FEC3AC",
"! 	c #FFB99D",
"~ 	c #FDA67F",
"{ 	c #FFA376",
"] 	c #E76C33",
"^ 	c #E8703D",
"/ 	c #FFB18F",
"( 	c #FEBEA3",
"_ 	c #FFCBB4",
": 	c #FFB696",
"< 	c #FE9B6B",
"[ 	c #FF8B59",
"} 	c #FE834A",
"| 	c #FE8956",
"1 	c #FF8F58",
"2 	c #D0541F",
"3 	c #FABB9C",
"4 	c #F9BFA6",
"5 	c #FFAF8A",
"6 	c #FF8043",
"7 	c #FE6D2A",
"8 	c #FE7238",
"9 	c #FF8F5C",
"0 	c #FE9261",
"a 	c #FFA37A",
"b 	c #FF9967",
"c 	c #BC4919",
"d 	c #FF844B",
"e 	c #FEC3A9",
"f 	c #FFA67B",
"g 	c #FF7132",
"h 	c #FE5E18",
"i 	c #FF570F",
"j 	c #F54700",
"k 	c #F95107",
"l 	c #FF7C45",
"m 	c #FF9E72",
"n 	c #FF905B",
"o 	c #A83403",
"p 	c #FF8D5A",
"q 	c #FEB28F",
"r 	c #FE9565",
"s 	c #FE3B00",
"t 	c #FE753B",
"u 	c #FF8B50",
"v 	c #902800",
"w 	c #F15915",
"x 	c #FDAC86",
"y 	c #FFD0BA",
"z 	c #FFCAAA",
"A 	c #9A2900",
"B 	c #FD844D",
"C 	c #FDBC9F",
"D 	c #FFE0CB",
"E 	c #A74D24",
"F 	c #FBA279",
"G 	c #FFE1CE",
"H 	c #B25B35",
"I 	c #E87137",
"J 	c #FFEBDF",
"K 	c #C37756",
"L 	c #FFB997",
"M 	c #FFFFFF",
"N 	c #F0AA8B",
"O 	c #DF8A66",
"P 	c #FACAB5",
"Q 	c #FFEFE5",
"R 	c #FBD3BF",
"S 	c #DF4100",
"T 	c #FE9259",
"U 	c #FFDED0",
"V 	c #FFDDCA",
"W 	c #EE6E36",
"X 	c #FFC19E",
"Y 	c #FFE7D8",
"Z 	c #F27E4C",
"` 	c #651400",
" .	c #D64A0A",
"..	c #FBC1A9",
"+.	c #FFDBCB",
"@.	c #FECBAC",
"#.	c #FC7A3E",
"$.	c #FEECE2",
"%.	c #FF9E70",
"&.	c #EC520F",
"*.	c #4A1200",
"=.	c #E59F7F",
"-.	c #FFDFCC",
";.	c #FEC6AD",
">.	c #FF9C72",
",.	c #FE8046",
"'.	c #EE4100",
").	c #FEF5F1",
"!.	c #FEAB87",
"~.	c #FF6822",
"{.	c #DA4300",
"].	c #8E2400",
"^.	c #962E04",
"/.	c #DD835C",
"(.	c #F7AB87",
"_.	c #F5966E",
":.	c #FE7B41",
"<.	c #FEE1D3",
"[.	c #FEBEA6",
"}.	c #FE7032",
"|.	c #FF5F17",
"1.	c #F95108",
"2.	c #F45D17",
"3.	c #FF8243",
"4.	c #FF935D",
"5.	c #FFD2B7",
"6.	c #FD7B3E",
"7.	c #FF7B44",
"8.	c #FF7D3E",
"9.	c #F87435",
"0.	c #FD6725",
"a.	c #FFE2D2",
"b.	c #FE8A57",
"c.	c #FF8A53",
"d.	c #F6743A",
"e.	c #EB6529",
"f.	c #FA986C",
"g.	c #FF6E30",
"h.	c #DF561D",
"i.	c #FA9A6D",
"j.	c #F89161",
"k.	c #C62B00",
"l.	c #F24B02",
"                                                ",
"                                    . + @       ",
"                            # $ % & * = -       ",
"                    ; > , ' ) ! ~ { ]           ",
"              ^ / ( _ : < [ } | 1 2             ",
"            3 4 5 6 7 8 9 0 a b c               ",
"        d e f g h i j k l m n o                 ",
"      p q r s           t u v                   ",
"    w x               y z A                     ",
"    B               C D E                       ",
"                  F G H                   I     ",
"                  J K                   L       ",
"                M N                 O P         ",
"              Q R S             T U V W         ",
"            X Y Z `          ...+.@.#.          ",
"            $.%.&.*.      =.-.;.>.,.'.          ",
"          ).!.~.{.].^./.z (._.  :.              ",
"        <.[.}.|.1.2.3.4.                        ",
"        5.6.7.8.9.0.                            ",
"      a.b.c.d.e.                                ",
"    a.f.g.h.                                    ",
"  i.j.k.                                        ",
"  l.                                            ",
"                                                "};
