/* XPM */
static char * skulltag_xpm[] = {
"24 24 225 2",
"  	c None",
". 	c #ABAAA8",
"+ 	c #5A5957",
"@ 	c #1B1613",
"# 	c #050000",
"$ 	c #010000",
"% 	c #020000",
"& 	c #0A0400",
"* 	c #272421",
"= 	c #686765",
"- 	c #282522",
"; 	c #010105",
"> 	c #004269",
", 	c #016FB1",
"' 	c #0189DC",
") 	c #0094EE",
"! 	c #0093EC",
"~ 	c #0081CF",
"{ 	c #006099",
"] 	c #00263E",
"^ 	c #000000",
"/ 	c #50504F",
"( 	c #7A7876",
"_ 	c #004E7D",
": 	c #0090E6",
"< 	c #018DE1",
"[ 	c #0090E8",
"} 	c #005F98",
"| 	c #00253D",
"1 	c #000204",
"2 	c #002035",
"3 	c #0086D8",
"4 	c #007DC8",
"5 	c #001D30",
"6 	c #0E0B09",
"7 	c #787774",
"8 	c #007BC6",
"9 	c #018CE1",
"0 	c #0090E7",
"a 	c #005A91",
"b 	c #000C14",
"c 	c #000102",
"d 	c #003B5F",
"e 	c #008EE4",
"f 	c #0191E9",
"g 	c #00426A",
"h 	c #070300",
"i 	c #017ECA",
"j 	c #008BDF",
"k 	c #002033",
"l 	c #000305",
"m 	c #00060A",
"n 	c #006CAE",
"o 	c #018CE0",
"p 	c #0190E7",
"q 	c #00395B",
"r 	c #0E0D0C",
"s 	c #201D1B",
"t 	c #005487",
"u 	c #002237",
"v 	c #000203",
"w 	c #000001",
"x 	c #005181",
"y 	c #000D15",
"z 	c #A1A19F",
"A 	c #010810",
"B 	c #0192E9",
"C 	c #018BDF",
"D 	c #00619C",
"E 	c #00060B",
"F 	c #00070B",
"G 	c #001E31",
"H 	c #008FE6",
"I 	c #00609A",
"J 	c #413E3B",
"K 	c #004C7A",
"L 	c #018FE5",
"M 	c #002942",
"N 	c #000509",
"O 	c #003556",
"P 	c #008EE3",
"Q 	c #000407",
"R 	c #6C6A68",
"S 	c #0C0703",
"T 	c #007AC4",
"U 	c #001F32",
"V 	c #000609",
"W 	c #00426B",
"X 	c #018DE2",
"Y 	c #018EE3",
"Z 	c #00304E",
"` 	c #2B2A28",
" .	c #0190E6",
"..	c #002134",
"+.	c #000103",
"@.	c #003351",
"#.	c #008DE2",
"$.	c #008CE0",
"%.	c #110F0E",
"&.	c #000003",
"*.	c #0192EB",
"=.	c #0191E8",
"-.	c #002740",
";.	c #004977",
">.	c #002236",
",.	c #000508",
"'.	c #000E17",
").	c #0091E9",
"!.	c #005C93",
"~.	c #0A0806",
"{.	c #000104",
"].	c #0092EB",
"^.	c #018DE3",
"/.	c #003D63",
"(.	c #004F7F",
"_.	c #001624",
":.	c #0078C1",
"<.	c #001F31",
"[.	c #00070C",
"}.	c #002F4C",
"|.	c #000406",
"1.	c #001E30",
"2.	c #005A90",
"3.	c #0B0907",
"4.	c #018EE4",
"5.	c #008FE5",
"6.	c #000E16",
"7.	c #00598F",
"8.	c #002B46",
"9.	c #00639F",
"0.	c #003E64",
"a.	c #000D16",
"b.	c #004772",
"c.	c #100E0E",
"d.	c #110D09",
"e.	c #006FB3",
"f.	c #008CE1",
"g.	c #005080",
"h.	c #00395D",
"i.	c #006DB0",
"j.	c #002B45",
"k.	c #004E7E",
"l.	c #00101A",
"m.	c #00273E",
"n.	c #272624",
"o.	c #474642",
"p.	c #003C61",
"q.	c #0072B6",
"r.	c #00263D",
"s.	c #005E96",
"t.	c #004A77",
"u.	c #000A12",
"v.	c #000306",
"w.	c #00253B",
"x.	c #00121E",
"y.	c #0079C3",
"z.	c #008ADE",
"A.	c #0073BA",
"B.	c #646462",
"C.	c #ABAAA9",
"D.	c #010101",
"E.	c #005990",
"F.	c #00080E",
"G.	c #00436B",
"H.	c #00131F",
"I.	c #003454",
"J.	c #001828",
"K.	c #005589",
"L.	c #004B79",
"M.	c #BAB9B6",
"N.	c #292826",
"O.	c #003859",
"P.	c #004570",
"Q.	c #000408",
"R.	c #00304D",
"S.	c #0087D8",
"T.	c #002339",
"U.	c #004671",
"V.	c #0068A6",
"W.	c #018CDF",
"X.	c #0085D6",
"Y.	c #383735",
"Z.	c #00629C",
"`.	c #0066A4",
" +	c #006DAF",
".+	c #00243A",
"++	c #001725",
"@+	c #0082D0",
"#+	c #0067A4",
"$+	c #001523",
"%+	c #004974",
"&+	c #0067A6",
"*+	c #030303",
"=+	c #807E7B",
"-+	c #00568A",
";+	c #007CC7",
">+	c #0080CE",
",+	c #0071B6",
"'+	c #0064A1",
")+	c #008BDE",
"!+	c #001A2A",
"~+	c #8E8C89",
"{+	c #0077BF",
"]+	c #006BAB",
"^+	c #018FE6",
"/+	c #005384",
"(+	c #020202",
"_+	c #8D8B88",
":+	c #2A2927",
"<+	c #001929",
"[+	c #00385A",
"}+	c #01619A",
"|+	c #006BAC",
"1+	c #0168A7",
"2+	c #005588",
"3+	c #00314F",
"4+	c #302F2E",
"5+	c #ACABAA",
"6+	c #494745",
"7+	c #161514",
"8+	c #050301",
"9+	c #060503",
"0+	c #191917",
"a+	c #5A5958",
"b+	c #AFADAC",
"                                                ",
"              . + @ # $ % & * =                 ",
"            - ; > , ' ) ! ~ { ] ^ /             ",
"        ( ^ _ : < [ } | 1 1 2 3 4 5 6           ",
"      7 ; 8 9 0 a b ^ 1 1 1 c d e f g h         ",
"      ^ i j j k l m m m m m m c n o p q r       ",
"    s t o 0 u v 1 1 1 1 1 1 1 w x o j 0 y /     ",
"  z A B C D l E E E E E E E E F G H o j I ^     ",
"  J K o L M m m m m m m m m m N O P o o f Q R   ",
"  S T C p U m m m m m m m m m V W X o o Y Z `   ",
"  ^ B o  ...v +.c v v v v v +.N @.#.o o $._ %.  ",
"  &.*.o =.-.1 ;.>.,.m m N m m '.).j o o C !.~.  ",
"  {.].o ^./.(._.:.<.c [.}.|.1 1.: o o o C 2.3.  ",
"  ^ 4.o 5.6.7._.d g 8.9.0.a.w :.C o o o o b.c.  ",
"  d.e.C f.g.5 1 [.h.i.j.k.l.2.< 4.j o o L m.n.  ",
"  o.p.X j e q.r.s.t.u.v.w.x.y.z.A.< o C $.^ B.  ",
"  C.D.C j 9 E.F.l.G.b.x.H.I.k J.K.#.o f.L.D.M.  ",
"    N.O.L o P.Q.g K R.Q ^ S.T.U.V.W.j X.^ Y.    ",
"      ^ Z.Y `. +_ .+E ++@+#+$+%+&+o p J.*+      ",
"      =+D.-+f ;+r.E N >+C S. +,+'+)+!+D.~+      ",
"        =+^ >.{+{+^ ]+o o C Y ^+/+v (+_+        ",
"            :+D.<+[+}+|+1+2+3+c D.4+            ",
"              5+6+7+8+D.D.9+0+a+b+              ",
"                                                "};
