/* XPM */
static char * zandronum_xpm[] = {
"24 24 122 2",
"  	c None",
". 	c #000000",
"+ 	c #080808",
"@ 	c #0A0A0A",
"# 	c #0B0B0B",
"$ 	c #081010",
"% 	c #101010",
"& 	c #141414",
"* 	c #161616",
"= 	c #171717",
"- 	c #101018",
"; 	c #181818",
"> 	c #191919",
", 	c #1A1A1A",
"' 	c #1B1B1B",
") 	c #1E1E1E",
"! 	c #1F1F1F",
"~ 	c #1E2E1E",
"{ 	c #210000",
"] 	c #212121",
"^ 	c #222222",
"/ 	c #232323",
"( 	c #242424",
"_ 	c #272727",
": 	c #292929",
"< 	c #2A2A2A",
"[ 	c #2C2C2C",
"} 	c #2D2D2D",
"| 	c #2E2E2E",
"1 	c #2F2F2F",
"2 	c #313131",
"3 	c #323232",
"4 	c #353535",
"5 	c #373737",
"6 	c #383838",
"7 	c #393939",
"8 	c #3A3A3A",
"9 	c #3B3B3B",
"0 	c #3C3C3C",
"a 	c #3E3E3E",
"b 	c #3F3F3F",
"c 	c #014B01",
"d 	c #1F481F",
"e 	c #2B4C2B",
"f 	c #285A28",
"g 	c #335433",
"h 	c #2C662C",
"i 	c #207A20",
"j 	c #424242",
"k 	c #434343",
"l 	c #464646",
"m 	c #474747",
"n 	c #4A4A4A",
"o 	c #4E4E4E",
"p 	c #4F4F4F",
"q 	c #534040",
"r 	c #505050",
"s 	c #515151",
"t 	c #525252",
"u 	c #535353",
"v 	c #575555",
"w 	c #575757",
"x 	c #595959",
"y 	c #5A5A5A",
"z 	c #5B5B5B",
"A 	c #5C5C5C",
"B 	c #5F5F5F",
"C 	c #417241",
"D 	c #457F45",
"E 	c #636363",
"F 	c #656565",
"G 	c #696969",
"H 	c #6A6A6A",
"I 	c #6B6B6B",
"J 	c #717171",
"K 	c #737373",
"L 	c #777777",
"M 	c #7A7A7A",
"N 	c #7B7B7B",
"O 	c #7C7C7C",
"P 	c #1E9A1E",
"Q 	c #468046",
"R 	c #4A844A",
"S 	c #4E884E",
"T 	c #4E904E",
"U 	c #508250",
"V 	c #5A8B5A",
"W 	c #579957",
"X 	c #5CA65C",
"Y 	c #5DB75D",
"Z 	c #6DC06D",
"` 	c #72D572",
" .	c #7AD47A",
"..	c #7BDE7B",
"+.	c #FF00FF",
"@.	c #848484",
"#.	c #858585",
"$.	c #8A8A8A",
"%.	c #8C8C8C",
"&.	c #8F8F8F",
"*.	c #939393",
"=.	c #949494",
"-.	c #969696",
";.	c #999999",
">.	c #9C9C9C",
",.	c #A2A2A2",
"'.	c #A3A3A3",
").	c #A5A5A5",
"!.	c #A9A9A9",
"~.	c #ADADAD",
"{.	c #AFAFAF",
"].	c #B5B5B5",
"^.	c #B6B6B6",
"/.	c #BDBDBD",
"(.	c #82D482",
"_.	c #9BF59B",
":.	c #A5FFA5",
"<.	c #C2C2C2",
"[.	c #C8C8C8",
"}.	c #CECECE",
"|.	c #D4D4D4",
"1.	c #E0E0E0",
"                                                ",
"              j n E E N y n 7 :                 ",
"          2 y I x F ~.K I E y o = .             ",
"        . l I }.%.~.>.=.K y E : ( & *           ",
"      j y =./.$.}.].;.H M G z ! 6 & 0 #         ",
"      t K !.'.!.1./.,.#.w 9 k ' , / } )         ",
"    2 y -.).<.|.]./.*.L J s _ ] 3 k : * .       ",
"    : y ~.[.].'.!.@.O A y 9 } , : 6 } ] =       ",
"    . N =.].{.].^.=.y p 4 a < 7 = } } = #       ",
"    : : F ).!.{.@.K t 2 p | > 5 6 6 [ ] #       ",
"    ] b A u &.J I E j 2 6 o } _ 6 z 6 ] ^       ",
"    ] 7 T `  . .:. . . .Y i _...`  .W * *       ",
"    ] n n j D Z Z Z R h R P (.Z V ] ] ] #       ",
"    ] j y %.j f X C t j 1 C c U 7 6 @ 8 ]       ",
"    ; 7 I E N n S d j 7 j d Q & & ' j 7 +       ",
"      ] m N B { g 7 j 7 7 2 e & n ] ; ;         ",
"        ] r q K ~ j 2 : : : ~ : ] ] ]           ",
"        ] : v K - n : ] : 7 $ : * 7 ;           ",
"          : E t . 7 : ] : 2 . ] * #             ",
"          2 ] n n 2 ] ] ] 7 2 : ] %             ",
"            ] j j : ; ; ] 2 2 2 *               ",
"            ; ] : ] ; % ; : 7 ] ;               ",
"              ; ] ] ; + % ; : ]                 ",
"                                                "};
