/* XPM */
static char * srb2_xpm[] = {
"24 24 212 2",
"  	c None",
". 	c #212176",
"+ 	c #1515A4",
"@ 	c #1616C2",
"# 	c #3636E7",
"$ 	c #1616C1",
"% 	c #1818B8",
"& 	c #262694",
"* 	c #000015",
"= 	c #191997",
"- 	c #4F4FD6",
"; 	c #6B6BCB",
"> 	c #6D6DD5",
", 	c #2E2EFF",
"' 	c #3333FF",
") 	c #3533FF",
"! 	c #3838FF",
"~ 	c #19198D",
"{ 	c #3E3E6E",
"] 	c #0C0CAF",
"^ 	c #01011D",
"/ 	c #131366",
"( 	c #2E2ED1",
"_ 	c #6B6BDA",
": 	c #6666CC",
"< 	c #6868CE",
"[ 	c #5B5BBE",
"} 	c #4242C6",
"| 	c #3031F1",
"1 	c #2333BF",
"2 	c #3633B1",
"3 	c #3333AF",
"4 	c #3333B0",
"5 	c #1A1A73",
"6 	c #12122D",
"7 	c #7373E6",
"8 	c #4F4FFF",
"9 	c #2525DA",
"0 	c #070756",
"a 	c #6060FF",
"b 	c #6868C8",
"c 	c #3939BC",
"d 	c #2D2FC3",
"e 	c #7158AD",
"f 	c #9B7148",
"g 	c #5B4B7E",
"h 	c #162679",
"i 	c #333399",
"j 	c #333398",
"k 	c #292976",
"l 	c #41418B",
"m 	c #6767CC",
"n 	c #4242B5",
"o 	c #4242FF",
"p 	c #6767C7",
"q 	c #6B6BCC",
"r 	c #5455B0",
"s 	c #C8AE5A",
"t 	c #FFD295",
"u 	c #6F668A",
"v 	c #2525A3",
"w 	c #232392",
"x 	c #171774",
"y 	c #424283",
"z 	c #5E5EBC",
"A 	c #2121E7",
"B 	c #6B6BD5",
"C 	c #6161CC",
"D 	c #7373CC",
"E 	c #6163D7",
"F 	c #B99285",
"G 	c #54388B",
"H 	c #4545E7",
"I 	c #4343FF",
"J 	c #4848FE",
"K 	c #19198B",
"L 	c #000029",
"M 	c #50508C",
"N 	c #3030EB",
"O 	c #3C3CFF",
"P 	c #7878D7",
"Q 	c #9F9FD1",
"R 	c #A1A1D0",
"S 	c #6464CE",
"T 	c #6969C7",
"U 	c #5C5CE6",
"V 	c #3A2BE1",
"W 	c #272A72",
"X 	c #3636FF",
"Y 	c #3131FF",
"Z 	c #0C0C85",
"` 	c #29297E",
" .	c #3232FF",
"..	c #3D3DBA",
"+.	c #A4A49B",
"@.	c #8F8F9B",
"#.	c #6A6AA5",
"$.	c #2F2FFF",
"%.	c #3535FF",
"&.	c #2525E7",
"*.	c #2727C0",
"=.	c #CFCFC1",
"-.	c #2C2CF9",
";.	c #67677C",
">.	c #D4D4D1",
",.	c #FFFFFF",
"'.	c #FFFFFA",
").	c #5454C6",
"!.	c #3333FE",
"~.	c #2727DD",
"{.	c #818181",
"].	c #F9F9F6",
"^.	c #3535B7",
"/.	c #4242A6",
"(.	c #E7E7E6",
"_.	c #D5D5E3",
":.	c #2D2DFF",
"<.	c #191992",
"[.	c #8C8C8C",
"}.	c #2C2C6D",
"|.	c #2929FE",
"1.	c #454544",
"2.	c #F8F8EB",
"3.	c #2828FF",
"4.	c #3737FF",
"5.	c #11116E",
"6.	c #898989",
"7.	c #04041C",
"8.	c #282849",
"9.	c #383839",
"0.	c #D6D6CA",
"a.	c #2C2CFF",
"b.	c #3636FE",
"c.	c #2626C1",
"d.	c #1A1A79",
"e.	c #1A1A5F",
"f.	c #191979",
"g.	c #1818A0",
"h.	c #0C0C95",
"i.	c #000000",
"j.	c #8F8F8F",
"k.	c #454545",
"l.	c #A7A7C5",
"m.	c #1A18A0",
"n.	c #00073F",
"o.	c #131313",
"p.	c #6A6A69",
"q.	c #B9BDC0",
"r.	c #AEAEB0",
"s.	c #54579D",
"t.	c #292BDC",
"u.	c #2833D1",
"v.	c #002644",
"w.	c #193695",
"x.	c #1A1B9F",
"y.	c #6C6C6D",
"z.	c #4B1D16",
"A.	c #C4BB8F",
"B.	c #D9DCE1",
"C.	c #F5F7FA",
"D.	c #F2F3F6",
"E.	c #BAA197",
"F.	c #FFC78C",
"G.	c #F8CF88",
"H.	c #3034C7",
"I.	c #3633FF",
"J.	c #0B3377",
"K.	c #093383",
"L.	c #242812",
"M.	c #DBB06C",
"N.	c #FDD993",
"O.	c #FFCD9A",
"P.	c #F5BF89",
"Q.	c #D6AE78",
"R.	c #D6AC78",
"S.	c #F5CF88",
"T.	c #FFD3A0",
"U.	c #E4AF7C",
"V.	c #FFD49E",
"W.	c #674AB8",
"X.	c #09238A",
"Y.	c #00336B",
"Z.	c #3833FC",
"`.	c #0F0F65",
" +	c #303A28",
".+	c #E4BB85",
"++	c #FFCF9E",
"@+	c #FFCC99",
"#+	c #E4BF7C",
"$+	c #D7B285",
"%+	c #F5CD85",
"&+	c #192957",
"*+	c #003666",
"=+	c #1D339B",
"-+	c #1B1B97",
";+	c #8B6833",
">+	c #D2AB67",
",+	c #FFBA87",
"'+	c #FFB982",
")+	c #FDB984",
"!+	c #F9C27B",
"~+	c #84603D",
"{+	c #031C24",
"]+	c #021D3C",
"^+	c #192799",
"/+	c #3836F3",
"(+	c #2626D1",
"_+	c #071400",
":+	c #5A2630",
"<+	c #1C2A10",
"[+	c #1A1A85",
"}+	c #3636E1",
"                                                ",
"                                                ",
"                  . + @ # $ % & *               ",
"              = - ; > , ' ) ' ' ! ~             ",
"{ ] ^     / ( _ : < [ } | 1 2 3 3 4 5           ",
"6 7 8 9 0 a b : < c d e f g h i j k             ",
"  l m n o p : : : q r s t u v w x               ",
"  y z A , B : C D : : E F G H I J K L           ",
"  M N ' ' O P Q R S T U V W X ' Y ' ! Z         ",
"  ` ' ' '  ...+.@.#.$.Y %.&.' ' ' ' ' %.*.      ",
"  =.-.'  .;.>.,.,.'.).' ' ' ' ' ' ' ' ' !.~.    ",
"{.].^.' /.(.,.,.,.,._.:.' ' ' ' ' ' ' ' ' ' <.  ",
"[.,.}.|.1.,.,.,.,.,.2.3.' ' ' ' ' ' ' ' ' ' 4.5.",
"6.,.7.8.9.,.,.,.,.,.0.a.' ' ' ' b.c.d.e.e.f.g.h.",
"  ,.i.j.k.,.,.,.,.,.l. .' ' %.m.n.              ",
"o.,.p.q.r.,.,.,.,.,.s.t.' ' u.v.w.x.            ",
"  y.i.z.A.B.C.D.B.E.F.G.H.I.J.K.I.! i.          ",
"  L.M.N.O.P.Q.R.S.T.U.V.W.X.Y.Z.' %.`.          ",
"     +.+++@+@+@+@+#+$+%+&+*+=+' ' ' -+          ",
"        ;+>+,+'+)+!+~+    {+]+^+/+' (+          ",
"            _+:+<+i.              [+}+          ",
"                                                ",
"                                                ",
"                                                "};
