/* XPM */
static char * odamex_xpm[] = {
"24 24 167 2",
"  	c None",
". 	c #2F3A7C",
"+ 	c #2E397A",
"@ 	c #313B7C",
"# 	c #303B7D",
"$ 	c #3A4586",
"% 	c #384282",
"& 	c #1B245D",
"* 	c #11163C",
"= 	c #0B0E24",
"- 	c #040614",
"; 	c #040612",
"> 	c #080A1B",
", 	c #131834",
"' 	c #252C5B",
") 	c #323C7B",
"! 	c #394384",
"~ 	c #111A52",
"{ 	c #0B0F2D",
"] 	c #483C24",
"^ 	c #372E1A",
"/ 	c #302B29",
"( 	c #3C3D58",
"_ 	c #414779",
": 	c #080F3D",
"< 	c #594725",
"[ 	c #4F3D1B",
"} 	c #423010",
"| 	c #39290A",
"1 	c #332305",
"2 	c #322204",
"3 	c #342305",
"4 	c #3A2908",
"5 	c #42300C",
"6 	c #4F3D19",
"7 	c #584727",
"8 	c #010629",
"9 	c #644E21",
"0 	c #543803",
"a 	c #513500",
"b 	c #533600",
"c 	c #553903",
"d 	c #654E22",
"e 	c #795712",
"f 	c #7B5300",
"g 	c #7C5300",
"h 	c #7D5400",
"i 	c #7B5506",
"j 	c #7A560A",
"k 	c #7B5507",
"l 	c #7B5200",
"m 	c #795813",
"n 	c #8E691C",
"o 	c #A36D00",
"p 	c #A26D00",
"q 	c #A16D02",
"r 	c #7E6026",
"s 	c #4E432C",
"t 	c #3A3225",
"u 	c #322C1F",
"v 	c #383123",
"w 	c #4C422D",
"x 	c #7B5F27",
"y 	c #A06D04",
"z 	c #8C681F",
"A 	c #7A643A",
"B 	c #CD8900",
"C 	c #CA8800",
"D 	c #C78702",
"E 	c #645537",
"F 	c #5D5035",
"G 	c #C68604",
"H 	c #76623C",
"I 	c #AF8327",
"J 	c #EFA000",
"K 	c #F0A100",
"L 	c #A77E2A",
"M 	c #9C782C",
"N 	c #F1A100",
"O 	c #EFA100",
"P 	c #AC8128",
"Q 	c #D79C17",
"R 	c #FFB100",
"S 	c #FFB500",
"T 	c #6C5B38",
"U 	c #5F533C",
"V 	c #FFB600",
"W 	c #D49B19",
"X 	c #E7A80E",
"Y 	c #FFB700",
"Z 	c #4D4841",
"` 	c #49443D",
" .	c #F8B205",
"..	c #E5A70F",
"+.	c #EAA80E",
"@.	c #FFB402",
"#.	c #FCB303",
"$.	c #4E4841",
"%.	c #F3AD09",
"&.	c #E9A80E",
"*.	c #DCA212",
"=.	c #FFBB00",
"-.	c #544D41",
";.	c #494541",
">.	c #DFA410",
",.	c #C18D1C",
"'.	c #FEAE00",
").	c #80662E",
"!.	c #715D33",
"~.	c #FFB200",
"{.	c #C38E1B",
"].	c #876624",
"^.	c #E89C00",
"/.	c #E69B00",
"(.	c #AB7B19",
"_.	c #A4771C",
":.	c #886724",
"<.	c #373329",
"[.	c #BC8001",
"}.	c #BF8200",
"|.	c #C48400",
"1.	c #6E5623",
"2.	c #6C5424",
"3.	c #C38300",
"4.	c #BB7F02",
"5.	c #5A461D",
"6.	c #9C6800",
"7.	c #996600",
"8.	c #996700",
"9.	c #9D6800",
"0.	c #7C580F",
"a.	c #5E481B",
"b.	c #504021",
"c.	c #4A3D24",
"d.	c #4E4022",
"e.	c #5D481C",
"f.	c #7B580F",
"g.	c #9D6900",
"h.	c #58451E",
"i.	c #4D3B16",
"j.	c #724C00",
"k.	c #714C00",
"l.	c #734D00",
"m.	c #744E00",
"n.	c #754E00",
"o.	c #4A3918",
"p.	c #2A2316",
"q.	c #43300C",
"r.	c #482F00",
"s.	c #492F00",
"t.	c #42300D",
"u.	c #282216",
"v.	c #191712",
"w.	c #231D10",
"x.	c #281F0E",
"y.	c #2B210D",
"z.	c #2A1F0C",
"A.	c #2A1F0B",
"B.	c #281F0D",
"C.	c #211C17",
"D.	c #141213",
"E.	c #080E2D",
"F.	c #02061C",
"G.	c #151D50",
"H.	c #070A21",
"I.	c #1D2457",
"J.	c #101639",
"              . + @ # $ %                       ",
"          & * = - ; > , ' ) !                   ",
"      ~ {             ] ^ / ( _                 ",
"    :         < [ } | 1 2 3 4 5 6 7             ",
"  8       9 0 a b b b b b b b b b a c d         ",
"        e f f f f g h i j k h g f f f l m       ",
"      n o o o p q r s t u v w x y p o o o z     ",
"    A B C C C D E               F G C C C B H   ",
"    I J J J K L                   M N J J O P   ",
"    Q R R R S T                   U V R R R W   ",
"    X V V V Y Z                   `  .V V V ..  ",
"    +.@.@.@.#.$.                    %.@.@.@.&.  ",
"    *.V V V =.-.                  ;.V V V V >.  ",
"    ,.'.'.'.R ).                  !.~.'.'.'.{.  ",
"    ].^./././.(.                  _./././.^.:.  ",
"    <.[.}.}.}.|.1.              2.3.}.}.}.4.<.  ",
"      5.6.7.8.7.9.0.a.b.c.d.e.f.g.7.8.7.6.h.    ",
"        i.j.k.k.k.k.l.m.n.m.l.k.k.k.k.k.o.      ",
"          p.q.r.s.s.s.s.s.s.s.s.s.r.t.u.        ",
"              v.w.x.y.z.A.z.y.B.C.D.            ",
"                              E.F.              ",
"                            G.H.                ",
"                        I.J.                    ",
"                                                "};
