/* XPM */
static char * turok2ex_xpm[] = {
/* width height num_colors chars_per_pixel */
"24 24 241 3",
/* colors */
"    c None",
"!   c #E6D717",
"#   c #E6C521",
"$   c #E4D12A",
"%   c #E3D31A",
"&   c #E3BB1F",
"'   c #E2C71D",
"(   c #E0C623",
")   c #DEDA2C",
"*   c #DCD41D",
"+   c #DCCE1C",
",   c #DBD225",
"-   c #DA9C6B",
".   c #D9C41A",
"/   c #D9AF22",
"0   c #D6C025",
"1   c #D5C78D",
"2   c #D4D01D",
"3   c #D2C01B",
"4   c #D1CA1A",
"5   c #CFAF24",
"6   c #CDA870",
"7   c #CD512C",
"8   c #CCB31D",
"9   c #CCA31F",
":   c #CAC21A",
";   c #CAAC1A",
"<   c #C7BF1C",
"=   c #C5B720",
">   c #C5AB23",
"?   c #C4A532",
"@   c #C49E22",
"A   c #C2AD13",
"B   c #C19347",
"C   c #C0B414",
"D   c #BEBC2D",
"E   c #BEB524",
"F   c #BC652A",
"G   c #BBB021",
"H   c #B8931E",
"I   c #B78A25",
"J   c #B6AE3A",
"K   c #B56730",
"L   c #B4AE29",
"M   c #B45125",
"N   c #B3B168",
"O   c #B2A83D",
"P   c #B24825",
"Q   c #B24625",
"R   c #B1A981",
"S   c #B19E1B",
"T   c #AFA36D",
"U   c #AFA020",
"V   c #AF8C18",
"W   c #ADAB52",
"X   c #AD9617",
"Y   c #AD4624",
"Z   c #AC3625",
"[   c #AB9119",
"]   c #AB4D24",
"^   c #AAAA56",
"_   c #AA6A2A",
"`   c #A8A975",
"a   c #A78921",
"b   c #A6A16D",
"c   c #A69A62",
"d   c #A5A759",
"e   c #A5A262",
"f   c #A59B76",
"g   c #A3A53B",
"h   c #A3A458",
"i   c #A39E4D",
"j   c #A38A1C",
"k   c #A29761",
"l   c #A19843",
"m   c #A1954A",
"n   c #9F986E",
"o   c #9F351F",
"p   c #9E8E59",
"q   c #9D9634",
"r   c #9D3121",
"s   c #9C3D20",
"t   c #9B6923",
"u   c #99955D",
"v   c #99461E",
"w   c #989A53",
"x   c #97361E",
"y   c #968220",
"z   c #958E60",
"{   c #92671F",
"|   c #922E1D",
"}   c #918539",
"~   c #917C1B",
" !  c #8E791E",
"!!  c #8E4F1F",
"#!  c #8E271C",
"$!  c #8C8C76",
"%!  c #8C8B67",
"&!  c #8B8950",
"'!  c #8A3C1D",
"(!  c #8A2C19",
")!  c #893018",
"*!  c #892917",
"+!  c #88863D",
",!  c #88793E",
"-!  c #87885C",
".!  c #878340",
"/!  c #86857F",
"0!  c #856B18",
"1!  c #843419",
"2!  c #826E13",
"3!  c #822216",
"4!  c #7F7242",
"5!  c #7D8252",
"6!  c #7D6522",
"7!  c #7C391C",
"8!  c #7A3215",
"9!  c #767316",
":!  c #764520",
";!  c #75652D",
"<!  c #754317",
"=!  c #747218",
">!  c #746325",
"?!  c #735811",
"@!  c #73200E",
"A!  c #716514",
"B!  c #713C14",
"C!  c #705A0E",
"D!  c #6F6F1D",
"E!  c #6F5D2B",
"F!  c #6E4D1A",
"G!  c #6E2C10",
"H!  c #6C1E0E",
"I!  c #6A3316",
"J!  c #6A2410",
"K!  c #698165",
"L!  c #695D0B",
"M!  c #695A0E",
"N!  c #693916",
"O!  c #675C1B",
"P!  c #65590E",
"Q!  c #65250E",
"R!  c #643413",
"S!  c #641A0C",
"T!  c #635F15",
"U!  c #627940",
"V!  c #62150A",
"W!  c #616114",
"X!  c #614011",
"Y!  c #5D5310",
"Z!  c #5C1A0C",
"[!  c #5C1307",
"]!  c #5B5434",
"^!  c #5A562A",
"_!  c #5A4B0C",
"`!  c #5A310D",
"a!  c #566C31",
"b!  c #532B0C",
"c!  c #523D0E",
"d!  c #520E04",
"e!  c #514516",
"f!  c #514219",
"g!  c #511D03",
"h!  c #507C56",
"i!  c #4F451B",
"j!  c #4F1608",
"k!  c #4E7747",
"l!  c #4E390E",
"m!  c #4B6339",
"n!  c #4A410C",
"o!  c #473109",
"p!  c #472906",
"q!  c #47160A",
"r!  c #464513",
"s!  c #462809",
"t!  c #437D5B",
"u!  c #433412",
"v!  c #431100",
"w!  c #420C03",
"x!  c #402409",
"y!  c #3F4B39",
"z!  c #3D0D06",
"{!  c #3C5331",
"|!  c #3C511A",
"}!  c #3C3D10",
"~!  c #3C3C0F",
" #  c #392B0C",
"!#  c #381804",
"##  c #37663D",
"$#  c #353A1B",
"%#  c #353410",
"&#  c #34451E",
"'#  c #34310B",
"(#  c #341508",
")#  c #340A03",
"*#  c #332507",
"+#  c #331203",
",#  c #321A02",
"-#  c #320703",
".#  c #314A1B",
"/#  c #312E0E",
"0#  c #2D6C3B",
"1#  c #2C1308",
"2#  c #2C0A02",
"3#  c #2B0400",
"4#  c #295423",
"5#  c #292A0A",
"6#  c #292204",
"7#  c #291903",
"8#  c #252C12",
"9#  c #246136",
":#  c #232A0D",
";#  c #231D06",
"<#  c #231501",
"=#  c #230401",
">#  c #22300F",
"?#  c #222209",
"@#  c #215B2E",
"A#  c #211E08",
"B#  c #20421F",
"C#  c #1F2A09",
"D#  c #1D4322",
"E#  c #1C3010",
"F#  c #1B1403",
"G#  c #1B0300",
"H#  c #1A0A00",
"I#  c #17290D",
"J#  c #132A12",
"K#  c #130200",
"L#  c #111103",
"M#  c #100902",
"N#  c #0E1606",
"O#  c #0B0C01",
"P#  c #0A0100",
"Q#  c #061A09",
"R#  c #051807",
"S#  c #050100",
"T#  c #040401",
"U#  c #030B02",
"V#  c #010400",
"W#  c #000000",
/* pixels */
"                                 `  n                                   ",
"                                 W  m                                   ",
"                        d  D  $  #  &  (  E  ^                          ",
"                  h  )  C  L! *# 2! M! o! C! A  *  w                    ",
"               J  3  _! 2# -# z! ?! Y! t  8! z! _! 2  g                 ",
"            O  H  u! !! Y  *! r  Z! j! _  ]  Z  q! ;# :  q              ",
"         e  I  F# ~! T  1  -  7  o  V! d! M  P  H! G# 6# +  z           ",
"         ?   # W# x! l! i! ^! .! B  F  @! w! v  )! 3# K# O! ;           ",
"      N  j  M# L# O# L# y! ]! N! B! 6! {  7! 3# (! z! S# G# >  c        ",
"      L  _! f! A# V# K# =# =# P# S# 1# I! <! B! )# J! W# P# 9! U        ",
"      ,  ;# $# /# N# =# :! 6  (! (# H# K# G# b! b! 3# =# W# ~! 4        ",
"$! -! %  Y! 0! F! :# 2# 1! K  Z  I! R! S! )# K# +# N! b! r! =! %  &! %! ",
"u  l  !  P! _! a! ># ,# [! 3! #! '! R! |  r  G! F# 8# 5# _! T! /  k  R  ",
"      0  F# G# |! I# <# v! d! @! )! <! s  s  G! !# J# K! .# '# 9        ",
"      S  c! M# '# 8# C# +# S! #! x  ]  Q  '! p! u! O! D# V# A! a        ",
"      i  V  T# 6# &# 8# 5# g! S! Q! `! s! <# %# 5! {! V# T# 8  p        ",
"         .  n! 7# 6# k! h! 4# E# Q# R# :# m! U! J# P# W# W! ;           ",
"         +! 4  ;# P# X! B# t! 0# 9# @# ## J# V# S# S# 5# *  4!          ",
"            y  <  ?# O# <# 6# F# H# K# K# S# V# U# :# 4   !             ",
"               ~  5  e! W# W# P# e! '# W# T# O# W! %  ~                 ",
"                  E! @  G  D! '# 9! P! }! 9! =  ;  ;!                   ",
"                     /! >! X  +  %  '  .  [  >!                         ",
"                                 }  ,!                                  ",
"                                 b  f                                   "
};
