/* XPM */
static char * vavoom_xpm[] = {
"24 24 151 2",
"  	c None",
". 	c #001B7E",
"+ 	c #00766F",
"@ 	c #007070",
"# 	c #000A81",
"$ 	c #007170",
"% 	c #00706F",
"& 	c #006F6E",
"* 	c #617E7E",
"= 	c #000000",
"- 	c #004D92",
"; 	c #000088",
"> 	c #00003C",
", 	c #000037",
"' 	c #000038",
") 	c #00000F",
"! 	c #316F6E",
"~ 	c #63706F",
"{ 	c #000034",
"] 	c #000072",
"^ 	c #000070",
"/ 	c #000076",
"( 	c #000080",
"_ 	c #000071",
": 	c #000082",
"< 	c #000081",
"[ 	c #000083",
"} 	c #71706F",
"| 	c #616172",
"1 	c #00006F",
"2 	c #00007F",
"3 	c #000F86",
"4 	c #00757F",
"5 	c #000F80",
"6 	c #627072",
"7 	c #040284",
"8 	c #27233A",
"9 	c #00006D",
"0 	c #00207F",
"a 	c #002080",
"b 	c #00003B",
"c 	c #291764",
"d 	c #027981",
"e 	c #084477",
"f 	c #000084",
"g 	c #00097F",
"h 	c #000980",
"i 	c #000087",
"j 	c #000D00",
"k 	c #058088",
"l 	c #004887",
"m 	c #00110F",
"n 	c #000086",
"o 	c #007380",
"p 	c #006B80",
"q 	c #0E0E86",
"r 	c #43887F",
"s 	c #009A7E",
"t 	c #000A87",
"u 	c #003880",
"v 	c #00487F",
"w 	c #414C7F",
"x 	c #008880",
"y 	c #00787F",
"z 	c #00927F",
"A 	c #00117F",
"B 	c #118A80",
"C 	c #000780",
"D 	c #007E7F",
"E 	c #000F7F",
"F 	c #00777F",
"G 	c #007F80",
"H 	c #007C7F",
"I 	c #001280",
"J 	c #00977F",
"K 	c #002E80",
"L 	c #281B80",
"M 	c #088080",
"N 	c #007780",
"O 	c #00027F",
"P 	c #09437F",
"Q 	c #021C80",
"R 	c #000B7F",
"S 	c #004B7F",
"T 	c #00007E",
"U 	c #004680",
"V 	c #00657F",
"W 	c #00827F",
"X 	c #006680",
"Y 	c #00067F",
"Z 	c #000077",
"` 	c #000073",
" .	c #0000BA",
"..	c #001E77",
"+.	c #008F81",
"@.	c #00009B",
"#.	c #0000B6",
"$.	c #0000C0",
"%.	c #00009F",
"&.	c #004D80",
"*.	c #00577F",
"=.	c #008F7F",
"-.	c #00107F",
";.	c #00008D",
">.	c #0000F6",
",.	c #0000EE",
"'.	c #0000FF",
").	c #0000B3",
"!.	c #000F70",
"~.	c #0000F8",
"{.	c #0000FE",
"].	c #0000C4",
"^.	c #00797F",
"/.	c #00017F",
"(.	c #007B80",
"_.	c #001C7F",
":.	c #00008F",
"<.	c #0000F0",
"[.	c #0F7880",
"}.	c #006E80",
"|.	c #008680",
"1.	c #0000E3",
"2.	c #0000B4",
"3.	c #001B7C",
"4.	c #418480",
"5.	c #008180",
"6.	c #00627E",
"7.	c #0000BE",
"8.	c #004380",
"9.	c #001C80",
"0.	c #00727E",
"a.	c #020E79",
"b.	c #088A7F",
"c.	c #003D80",
"d.	c #002077",
"e.	c #0000BF",
"f.	c #0000C3",
"g.	c #014C80",
"h.	c #348A80",
"i.	c #004580",
"j.	c #6E7980",
"k.	c #084880",
"l.	c #110F80",
"m.	c #101080",
"n.	c #090980",
"o.	c #827A80",
"p.	c #00807F",
"q.	c #483F7F",
"r.	c #47477F",
"s.	c #484880",
"t.	c #423F7F",
". + @ @ @ + #                       $ % % % & * ",
"+ = = = = = -                     ; = > , ' ) ! ",
"~ { ] ^ ^ / )                     ( _ : < [ > } ",
"| = 1 ( ( 2 3 4                 4 5 ( ( 2 ^ = 6 ",
"7 8 9 ( ( ( 2 0                 a ( ( ( [ b c d ",
"  e f 2 ( ( ( g               ( h ( ( ( i j k   ",
"  l m n ( ( ( 2 o             p ( ( ( ( 2 q r   ",
"  s t 2 ( ( ( ( u           v 2 ( ( ( ( ( w x   ",
"    y ( ( ( ( ( 2 z         A ( ( ( ( ( ( B     ",
"    4 C ( ( ( ( ( 2       D E ( ( ( ( ( F G     ",
"      H ( ( ( ( ( I J     K ( ( ( ( ( L M       ",
"      N ( ( ( ( ( O       h ( ( ( ( ( P Q       ",
"      R S ( ( ( ( T U   V 2 T T 2 ( 5 W         ",
"        X Y 2 Z `  ...+.( @.#.$.%.2 &.*.        ",
"        =.-.;.>.,.'.).!.~.~.{.'.].T ^./.        ",
"        (._.:.'.{.{.'.'.{.'.{.<.` [.}.          ",
"          |.n 1.'.'.'.'.'.'.'.2.3.4.            ",
"          5.6.7.'.'.'.'.'.'.'.Z 8.9.            ",
"            0.#.'.'.'.'.'.'.~.a.b.              ",
"            c.d.#.e.e.e.e.f.( g.h.              ",
"              i.T T T T T T 2 j.(               ",
"              k.l.m.m.m.m.n.o.p.                ",
"              q.r.s.s.s.s.s.t.                  ",
"                2 ( ( ( ( ( (                   "};
