/* XPM */
static char * chocolatedoom_xpm[] = {
"24 24 309 2",
"  	c None",
". 	c #BC9578",
"+ 	c #DFC0AA",
"@ 	c #EDDCCF",
"# 	c #EAD7CA",
"$ 	c #695B50",
"% 	c #9F7E67",
"& 	c #72492B",
"* 	c #704A2F",
"= 	c #4A2F1C",
"- 	c #785942",
"; 	c #B88A69",
"> 	c #CDA689",
", 	c #A38F80",
"' 	c #DBBCA5",
") 	c #D9B79E",
"! 	c #D8B49A",
"~ 	c #E2C6B2",
"{ 	c #815331",
"] 	c #DDBEA7",
"^ 	c #DDC0AB",
"/ 	c #C08D68",
"( 	c #8A6D58",
"_ 	c #8F2C21",
": 	c #822E30",
"< 	c #D4B49E",
"[ 	c #D0AA8F",
"} 	c #BE9B81",
"| 	c #9E7F69",
"1 	c #ECDACD",
"2 	c #EEDDD2",
"3 	c #D4AB8E",
"4 	c #B08A6E",
"5 	c #D4AD8F",
"6 	c #2D1C11",
"7 	c #B9825A",
"8 	c #7B261C",
"9 	c #001030",
"0 	c #442030",
"a 	c #7D261D",
"b 	c #D5B298",
"c 	c #B4825D",
"d 	c #B68058",
"e 	c #664228",
"f 	c #8A5B38",
"g 	c #B5835F",
"h 	c #895834",
"i 	c #764C2D",
"j 	c #9A643C",
"k 	c #BC8A66",
"l 	c #CDA282",
"m 	c #6B2119",
"n 	c #92312F",
"o 	c #C5A994",
"p 	c #D1A788",
"q 	c #9E6C48",
"r 	c #8C5C38",
"s 	c #BA8966",
"t 	c #CFAC92",
"u 	c #633F25",
"v 	c #8C5A36",
"w 	c #7C4F2F",
"x 	c #855532",
"y 	c #593922",
"z 	c #BB845C",
"A 	c #BD8C69",
"B 	c #612017",
"C 	c #562530",
"D 	c #6C241A",
"E 	c #D6B49C",
"F 	c #C6916A",
"G 	c #AA734B",
"H 	c #825331",
"I 	c #7E5130",
"J 	c #8D5A35",
"K 	c #5A3922",
"L 	c #3A2516",
"M 	c #422B19",
"N 	c #AA8163",
"O 	c #B98966",
"P 	c #B67F56",
"Q 	c #A17A5D",
"R 	c #4F2015",
"S 	c #021333",
"T 	c #3D1F31",
"U 	c #352334",
"V 	c #DAB79D",
"W 	c #956441",
"X 	c #2D1D11",
"Y 	c #A9744E",
"Z 	c #654127",
"` 	c #593921",
" .	c #8E5D39",
"..	c #6C4529",
"+.	c #9C643C",
"@.	c #905C36",
"#.	c #7E563A",
"$.	c #461F14",
"%.	c #0B2141",
"&.	c #7A2619",
"*.	c #772519",
"=.	c #35273C",
"-.	c #0B2140",
";.	c #0B2040",
">.	c #392E40",
",.	c #483120",
"'.	c #533520",
").	c #E4CAB8",
"!.	c #E6CFBF",
"~.	c #B78A69",
"{.	c #B69882",
"].	c #BE845A",
"^.	c #9E663D",
"/.	c #7E5435",
"(.	c #B77D52",
"_.	c #B67F58",
":.	c #71492C",
"<.	c #523723",
"[.	c #442115",
"}.	c #193555",
"|.	c #183555",
"1.	c #87351C",
"2.	c #2A1808",
"3.	c #3F1F0C",
"4.	c #183554",
"5.	c #3E4051",
"6.	c #916B50",
"7.	c #D9B59B",
"8.	c #27190F",
"9.	c #845532",
"0.	c #976139",
"a.	c #C0865C",
"b.	c #C8946E",
"c.	c #BC7E51",
"d.	c #9C643B",
"e.	c #B67B50",
"f.	c #BA845D",
"g.	c #214363",
"h.	c #214362",
"i.	c #8F401E",
"j.	c #39260D",
"k.	c #44290F",
"l.	c #424C5E",
"m.	c #AF9786",
"n.	c #CA9975",
"o.	c #B27D57",
"p.	c #7A4E2E",
"q.	c #794E2E",
"r.	c #73492B",
"s.	c #98623A",
"t.	c #945F38",
"u.	c #935E38",
"v.	c #4D311D",
"w.	c #7C5233",
"x.	c #7F5231",
"y.	c #2F5877",
"z.	c #2F5777",
"A.	c #9A511F",
"B.	c #503916",
"C.	c #2F5776",
"D.	c #495E71",
"E.	c #8A6B54",
"F.	c #8A5935",
"G.	c #70492C",
"H.	c #9E704E",
"I.	c #3E2817",
"J.	c #784D2D",
"K.	c #855533",
"L.	c #8F5C36",
"M.	c #9B633A",
"N.	c #492F1B",
"O.	c #7D502F",
"P.	c #94613B",
"Q.	c #674227",
"R.	c #386584",
"S.	c #A15B20",
"T.	c #5F461C",
"U.	c #386484",
"V.	c #4D6B7E",
"W.	c #9E6B45",
"X.	c #905C37",
"Y.	c #8A5934",
"Z.	c #70482A",
"`.	c #644026",
" +	c #7B5031",
".+	c #2B1C10",
"++	c #463616",
"@+	c #332B0F",
"#+	c #5E4F1C",
"$+	c #7F6B25",
"%+	c #766425",
"&+	c #301000",
"*+	c #AA6B20",
"=+	c #765A25",
"-+	c #3E1B07",
";+	c #6E4C33",
">+	c #463020",
",+	c #745A26",
"'+	c #64432B",
")+	c #7A4E2F",
"!+	c #3E3015",
"~+	c #3F3512",
"{+	c #67571E",
"]+	c #63531D",
"^+	c #6E5C20",
"/+	c #766323",
"(+	c #5F5121",
"_+	c #AE7520",
":+	c #85672B",
"<+	c #3A1905",
"[+	c #AE9336",
"}+	c #776423",
"|+	c #564919",
"1+	c #5F501C",
"2+	c #6D5B20",
"3+	c #4F4217",
"4+	c #6C5B20",
"5+	c #9D8532",
"6+	c #B69B3B",
"7+	c #462409",
"8+	c #B2821F",
"9+	c #9C7B34",
"0+	c #49270B",
"a+	c #A28930",
"b+	c #877128",
"c+	c #726022",
"d+	c #69581F",
"e+	c #887228",
"f+	c #927B2B",
"g+	c #AE9439",
"h+	c #B59A3D",
"i+	c #B99D3E",
"j+	c #5D3913",
"k+	c #B58B1E",
"l+	c #AB883A",
"m+	c #AC8839",
"n+	c #5E3A13",
"o+	c #BDA348",
"p+	c #99812D",
"q+	c #726023",
"r+	c #756322",
"s+	c #A88E35",
"t+	c #B79E45",
"u+	c #C6AB4D",
"v+	c #C4A849",
"w+	c #805A21",
"x+	c #BB921B",
"y+	c #946D1E",
"z+	c #815A21",
"A+	c #867331",
"B+	c #8F792B",
"C+	c #B29636",
"D+	c #60511C",
"E+	c #AB9441",
"F+	c #BAA047",
"G+	c #B69A3A",
"H+	c #AD943B",
"I+	c #A78E35",
"J+	c #986F2B",
"K+	c #C8A451",
"L+	c #9D852F",
"M+	c #A98F35",
"N+	c #9E8630",
"O+	c #A58D3A",
"P+	c #C1A952",
"Q+	c #C0A648",
"R+	c #AE953E",
"S+	c #7C6A2B",
"T+	c #BB8F39",
"U+	c #D7B257",
"V+	c #C6AA48",
"W+	c #826D26",
"X+	c #A78D34",
"Y+	c #C3A84A",
"Z+	c #AE943B",
"`+	c #89742A",
" @	c #362E16",
".@	c #D2A543",
"+@	c #DAB151",
"@@	c #998234",
"#@	c #AF963C",
"$@	c #8B7529",
"%@	c #BDA44D",
"&@	c #C7AB4B",
"*@	c #A9903A",
"=@	c #BDA143",
"-@	c #EFBF4F",
";@	c #EFC459",
">@	c #9D873C",
",@	c #9C832E",
"'@	c #A69041",
")@	c #B09845",
"!@	c #98802F",
"~@	c #B79B3C",
"{@	c #A28830",
"]@	c #EBC866",
"^@	c #AF9435",
"/@	c #9A822E",
"(@	c #C8AD50",
"_@	c #A88F38",
":@	c #AD9234",
"<@	c #A88E34",
"[@	c #A18C4B",
"}@	c #B49839",
"|@	c #BEA345",
"1@	c #AE9334",
"2@	c #846F27",
"3@	c #8D7629",
"4@	c #85712B",
"            . + @ # $                           ",
"          % & * = - ; >                         ",
"        , ' ) ! ~ { ] ^ / (   _ :               ",
"      < [ } | 1 2 3 4 5 6 7   8 9 0 a           ",
"    b c d e f ] g h i j k l   m 9 9 9 9 n       ",
"  o p q r s t u v w x y z A   B 9 9 9 9 9 C D   ",
"E F G H I { J H K L M N O P Q R S S T S S S S U ",
"V W I X H I x Y Z `  ...+.@.#.$.%.%.&.*.=.-.;.>.",
",.y '.).!.~.{.].^./.(._.:.<.  [.}.|.1.2.3.|.4.5.",
"  6.7.8.H & 9.0.a.b.c.d.e.f.    g.h.i.j.k.h.h.l.",
"m.n.o.X p.q.r.I s.t.u.v.w.x.    y.z.A.B.B.C.C.D.",
"E.F.G.H.I.J.K.K.L.M.N.O.P.Q.    R.R.S.T.T.R.U.V.",
"  W.X.Y.Z.`. +.+++@+#+$+%+      &+&+*+=+=+&+&+-+",
"  ;+>+,+'+)+!+~+{+]+^+/+(+      &+&+_+:+:+&+&+<+",
"      [+}+|+1+2+3+4+5+6+        7+7+8+9+9+7+7+0+",
"      a+b+c+d+e+f+g+h+i+        j+j+k+l+m+j+j+n+",
"      o+p+q+r+d+s+t+u+v+        w+w+x+y+w+w+w+z+",
"      A+B+C+D+E+F+G+H+I+        J+J+J+J+J+J+J+K+",
"        L+M+N+O+P+Q+R+S+        T+T+T+T+T+U+    ",
"        V+W+X+Y+Z+`+[+ @        .@.@.@.@+@      ",
"        @@#@$@%@&@*@=@          -@-@;@          ",
"        >@,@'@)@!@~@{@          -@]@            ",
"          ^@/@(@_@:@<@          [@              ",
"          }@|@1@2@3@4@                          "};
