/* XPM */
static char * unknownengine_xpm[] = {
"24 24 236 2",
"  	c None",
". 	c #A0A0A0",
"+ 	c #969595",
"@ 	c #919190",
"# 	c #8F8F8F",
"$ 	c #909191",
"% 	c #969596",
"& 	c #A09FA0",
"* 	c #979898",
"= 	c #8F8F90",
"- 	c #929292",
"; 	c #949494",
"> 	c #969695",
", 	c #969797",
"' 	c #969696",
") 	c #959696",
"! 	c #949595",
"~ 	c #939392",
"{ 	c #909090",
"] 	c #989899",
"^ 	c #A3A3A3",
"/ 	c #939393",
"( 	c #999999",
"_ 	c #9B9B9B",
": 	c #9D9D9D",
"< 	c #999898",
"[ 	c #9B9C9C",
"} 	c #9A9A9A",
"| 	c #979797",
"1 	c #909190",
"2 	c #A4A4A4",
"3 	c #9F9F9F",
"4 	c #919091",
"5 	c #959595",
"6 	c #505050",
"7 	c #292929",
"8 	c #0C0C0C",
"9 	c #000000",
"0 	c #383838",
"a 	c #858585",
"b 	c #9E9D9E",
"c 	c #929192",
"d 	c #A1A1A1",
"e 	c #A4A3A4",
"f 	c #919191",
"g 	c #9B9B9A",
"h 	c #A09F9F",
"i 	c #818180",
"j 	c #020202",
"k 	c #111111",
"l 	c #0F0F0F",
"m 	c #040404",
"n 	c #787778",
"o 	c #9C9C9B",
"p 	c #979798",
"q 	c #A5A5A5",
"r 	c #A5A4A5",
"s 	c #888787",
"t 	c #313131",
"u 	c #7A7A7A",
"v 	c #ABABAB",
"w 	c #B3B2B3",
"x 	c #B3B3B3",
"y 	c #252525",
"z 	c #121212",
"A 	c #A2A1A2",
"B 	c #9D9C9C",
"C 	c #999899",
"D 	c #9FA09F",
"E 	c #AAAAAA",
"F 	c #AFAFAF",
"G 	c #B6B7B6",
"H 	c #B9B8B9",
"I 	c #BABABA",
"J 	c #B9B9B9",
"K 	c #898889",
"L 	c #A7A7A6",
"M 	c #959596",
"N 	c #989897",
"O 	c #9D9E9E",
"P 	c #A9A9AA",
"Q 	c #AFB0AF",
"R 	c #B5B4B4",
"S 	c #BDBDBC",
"T 	c #BFC0BF",
"U 	c #C1C1C1",
"V 	c #C1C1C2",
"W 	c #C0C0C0",
"X 	c #B7B7B8",
"Y 	c #848485",
"Z 	c #939494",
"` 	c #A7A7A7",
" .	c #AEADAE",
"..	c #B3B4B4",
"+.	c #B9B9BA",
"@.	c #BEBEBE",
"#.	c #C3C2C3",
"$.	c #C6C6C6",
"%.	c #C8C8C8",
"&.	c #C9C8C8",
"*.	c #C7C7C7",
"=.	c #9E9E9E",
"-.	c #A3A4A4",
";.	c #AFAFB0",
">.	c #A9A9A9",
",.	c #9C9C9C",
"'.	c #AAABAB",
").	c #B1B1B1",
"!.	c #B7B8B8",
"~.	c #BEBDBE",
"{.	c #C4C3C3",
"].	c #C9C8C9",
"^.	c #CDCDCD",
"/.	c #CFCFD0",
"(.	c #CFCFCF",
"_.	c #343434",
":.	c #B2B3B3",
"<.	c #ACACAC",
"[.	c #9F9F9E",
"}.	c #989898",
"|.	c #939293",
"1.	c #A6A6A6",
"2.	c #ADADAD",
"3.	c #B4B4B4",
"4.	c #BABBBA",
"5.	c #D3D2D2",
"6.	c #D6D6D6",
"7.	c #C6C6C5",
"8.	c #3B3B3A",
"9.	c #161616",
"0.	c #ADAEAE",
"a.	c #BCBCBC",
"b.	c #B6B5B5",
"c.	c #AEAEAF",
"d.	c #A8A7A7",
"e.	c #A1A0A1",
"f.	c #919292",
"g.	c #AEAEAE",
"h.	c #B5B5B6",
"i.	c #C3C4C3",
"j.	c #CACACA",
"k.	c #D1D1D1",
"l.	c #D5D4D4",
"m.	c #848484",
"n.	c #2A2A2B",
"o.	c #C5C5C5",
"p.	c #B0B0AF",
"q.	c #A2A2A2",
"r.	c #9B9A9B",
"s.	c #949393",
"t.	c #B6B6B5",
"u.	c #BDBDBD",
"v.	c #C4C4C4",
"w.	c #CBCBCB",
"x.	c #D2D2D2",
"y.	c #080708",
"z.	c #717171",
"A.	c #D0D0D0",
"B.	c #BEBFBE",
"C.	c #B0B0B1",
"D.	c #939394",
"E.	c #989998",
"F.	c #B5B5B5",
"G.	c #BDBCBC",
"H.	c #CBCACA",
"I.	c #8C8C8D",
"J.	c #484747",
"K.	c #D9D9D9",
"L.	c #D3D2D3",
"M.	c #CCCCCC",
"N.	c #C5C5C4",
"O.	c #B7B7B7",
"P.	c #B0AFB0",
"Q.	c #A9A8A9",
"R.	c #A5A6A6",
"S.	c #ADADAC",
"T.	c #BBBABA",
"U.	c #C8C7C7",
"V.	c #CECDCE",
"W.	c #898A89",
"X.	c #454545",
"Y.	c #D3D4D3",
"Z.	c #C9C9C9",
"`.	c #C2C3C3",
" +	c #AFAFAE",
".+	c #A8A7A8",
"++	c #9A999A",
"@+	c #A2A2A3",
"#+	c #969796",
"$+	c #ABAAAA",
"%+	c #B7B8B7",
"&+	c #BEBEBD",
"*+	c #676767",
"=+	c #898989",
"-+	c #BFBFBF",
";+	c #B3B3B2",
">+	c #A6A5A5",
",+	c #A7A7A8",
"'+	c #BABAB9",
")+	c #C3C3C3",
"!+	c #C7C6C6",
"~+	c #B0AFAF",
"{+	c #A2A3A3",
"]+	c #A9AAAA",
"^+	c #BCBDBD",
"/+	c #787878",
"(+	c #838383",
"_+	c #B6B5B6",
":+	c #B0B0B0",
"<+	c #9D9D9E",
"[+	c #AAAAAB",
"}+	c #AFAEAF",
"|+	c #1C1C1C",
"1+	c #ABABAC",
"2+	c #9C9B9B",
"3+	c #636363",
"4+	c #1B1B1B",
"5+	c #B2B2B2",
"6+	c #A2A2A1",
"7+	c #9C9C9D",
"8+	c #A8A8A8",
"9+	c #9A9B9B",
"0+	c #A8A9A8",
"a+	c #ABACAC",
"b+	c #AAA9A9",
"c+	c #A7A6A7",
"d+	c #A4A4A3",
"e+	c #A0A0A1",
"f+	c #A4A4A5",
"g+	c #A7A6A6",
"h+	c #9C9D9D",
"i+	c #A2A3A2",
"j+	c #969697",
"k+	c #9C9D9C",
"l+	c #979897",
"m+	c #A4A5A5",
"                . + @ # # $ % &                 ",
"            * = - ; > , ' ) ! ~ { ]             ",
"        ^ # / ' ( _ : < ] : [ } | ; 1 2         ",
"      3 4 5 ( / 6 7 8 9 9 8 0 a b } ' c d       ",
"    e f ' g h i 9 9 j k l 9 9 m n . o p - q     ",
"    { + _ . r s t u v w x ' y 9 z 2 A B | f     ",
"  C ; } D q E F x G H I I J ( 9 9 K L d o M g   ",
"  f N O 2 P Q R J S T U V W X 9 9 Y v q h ( /   ",
". Z _ d `  ...+.@.#.$.%.&.*.=.9 9 -.;.>.^ ,.M A ",
"| ' : -.'.).!.~.{.].^./.(.%._.9 0 J :.<.q [.}.}.",
"|.}.3 1.2.3.4.U *.^.5.6.7.8.9 9.0.a.b.c.d.e.} 5 ",
"f.( & ` g.h.a.i.j.k.l.m.k 9 n.3.o.@.G p.>.q.r.s.",
"- ( . ` g.t.u.v.w.x.= 9 y.z.A.^.$.B.X C.>.q._ D.",
"/ E.. ` g.F.G.{.H.k.I.9 J.K.L.M.N.@.O.P.Q.q.} M ",
"* }.3 R.S...T.U U.V.W.9 X.Y.(.Z.`.a.t. +.+e.( ++",
"@+#+: 2 $+).%+&+i.&.>.*+=+^.j.o.-+J ;+<.>+[.p 2 ",
"  ; _ d ,+g.3.'+B.)+!+%.%.*.v.T T.F.~+>.{+,.%   ",
"  ,.* =.e ]+F 3.J ^+D /+(+W @.'+_+:+v q 3 ( <+  ",
"    ; } . q [+}+:.G *+9 |+J O.3.:+1+1.d 2+5     ",
"    1.> _ . q >.2.:+3+9 4+5+C.2.E 1.6+7+| 8+    ",
"      ^ ' 9+3 ^ 1.0+'.<.a+v b+c+d+e+,.| f+      ",
"        g+5 ( h+& q.e 2 q 2 i+. b } ' 8+        ",
"            =.j+( _ k+<+O B ,.} | =.            ",
"                2 2+l+' ' N 2+m+                "};
